<svg xmlns="http://www.w3.org/2000/svg" xmlns:xlink="http://www.w3.org/1999/xlink" width="77" height="74" viewBox="0 0 77 74">
  <defs>
    <clipPath id="clip-path">
      <rect id="Rectangle_37" data-name="Rectangle 37" width="77" height="74" rx="10" transform="translate(555 681.426)" fill="#fff" stroke="#707070" stroke-width="1" style="mix-blend-mode: multiply;isolation: isolate"/>
    </clipPath>
  </defs>
  <g id="Mask_Group_1" data-name="Mask Group 1" transform="translate(-555 -681.426)" clip-path="url(#clip-path)">
    <g id="upload" transform="translate(555 682.714)">
      <path id="Path_5" data-name="Path 5" d="M57.257,97.392H47.576a3.23,3.23,0,0,1-3.227-3.227V78.029H36.281a1.615,1.615,0,0,1-1.142-2.756L51.274,59.137a1.615,1.615,0,0,1,2.282,0L69.691,75.273a1.615,1.615,0,0,1-1.139,2.756H60.484V94.165A3.23,3.23,0,0,1,57.257,97.392ZM40.176,74.8h5.786a1.614,1.614,0,0,1,1.614,1.614V94.165h9.681V76.415A1.614,1.614,0,0,1,58.871,74.8h5.786L52.416,62.561Z" transform="translate(-13.691 -26.395)"/>
      <path id="Path_6" data-name="Path 6" d="M14.525,56.871a1.8,1.8,0,0,1-.184-.01,16.132,16.132,0,0,1,.684-32.126A24.18,24.18,0,0,1,60.2,18.384,19.325,19.325,0,0,1,63.362,56.2a1.614,1.614,0,0,1-.862-3.111A16.1,16.1,0,0,0,59.066,21.53a1.612,1.612,0,0,1-1.375-.929,20.951,20.951,0,0,0-39.7,5.935,1.616,1.616,0,0,1-1.6,1.388A12.906,12.906,0,0,0,14.7,53.653a1.614,1.614,0,0,1-.177,3.217Z" transform="translate(0 -5.333)"/>
    </g>
  </g>
</svg>
